<?xml version="1.0" standalone="no"?>
<!DOCTYPE svg PUBLIC "-//W3C//DTD SVG 20010904//EN"
 "http://www.w3.org/TR/2001/REC-SVG-20010904/DTD/svg10.dtd">
<svg version="1.0" xmlns="http://www.w3.org/2000/svg"
 width="300.000000pt" height="311.000000pt" viewBox="0 0 300.000000 311.000000"
 preserveAspectRatio="xMidYMid meet">
<metadata>
Created by potrace 1.10, written by Peter Selinger 2001-2011
</metadata>
<g transform="translate(0.000000,311.000000) scale(0.100000,-0.100000)"
fill="#000000" stroke="none">
<path d="M1470 2760 l0 -170 25 0 25 0 0 170 0 170 -25 0 -25 0 0 -170z"/>
<path d="M2099 2729 c-11 -23 -48 -87 -80 -142 -32 -54 -59 -103 -59 -108 0
-4 9 -13 19 -19 17 -9 26 3 87 108 37 64 76 129 86 143 14 21 15 29 5 36 -31
25 -37 23 -58 -18z"/>
<path d="M841 2751 c-11 -7 3 -39 70 -155 46 -80 86 -146 89 -146 3 1 13 7 23
14 16 13 15 18 -21 77 -21 35 -58 99 -82 142 -44 77 -53 84 -79 68z"/>
<path d="M372 2279 c-7 -12 -12 -22 -10 -23 6 -4 283 -161 289 -164 3 -1 10 8
16 20 10 22 3 27 -132 106 -79 45 -145 82 -147 82 -2 0 -9 -9 -16 -21z"/>
<path d="M2460 2219 c-74 -43 -136 -82 -138 -87 -1 -4 3 -15 10 -24 12 -15 27
-9 148 63 74 43 139 80 144 82 10 3 -11 47 -22 46 -4 0 -68 -36 -142 -80z"/>
<path d="M1365 2246 c-240 -47 -405 -190 -475 -411 -33 -103 -31 -248 5 -355
29 -89 89 -209 166 -336 70 -116 115 -228 136 -332 27 -137 15 -132 297 -132
283 0 277 -2 300 120 26 134 53 196 183 420 135 233 178 421 135 586 -30 114
-69 182 -152 265 -81 83 -169 135 -276 163 -84 23 -234 28 -319 12z m280 -81
c103 -27 185 -73 256 -144 133 -133 178 -309 129 -503 -18 -74 -66 -171 -194
-393 -57 -100 -101 -211 -117 -298 l-13 -67 -209 2 -210 3 -14 69 c-20 97 -55
185 -120 301 -184 327 -207 386 -206 535 1 102 20 173 69 257 59 102 189 197
319 234 77 23 231 24 310 4z"/>
<path d="M1270 1587 c0 -23 31 -57 51 -57 11 0 29 5 40 10 10 6 19 7 19 2 0
-12 222 -12 237 0 7 5 14 5 18 -2 10 -16 40 -12 69 11 30 23 33 37 10 46 -9 3
-21 -3 -30 -15 -15 -22 -44 -20 -44 4 0 19 -26 18 -34 -1 -3 -8 -15 -15 -26
-15 -11 0 -20 7 -20 15 0 8 -9 15 -20 15 -11 0 -20 -6 -20 -14 0 -25 -19 -28
-37 -6 -20 23 -43 27 -43 6 0 -16 -19 -25 -37 -19 -7 3 -13 11 -13 19 0 19
-29 18 -36 -1 -4 -8 -15 -15 -25 -15 -10 0 -19 7 -19 15 0 8 -9 15 -20 15 -11
0 -20 -6 -20 -13z"/>
<path d="M1318 1455 c-2 -3 21 -132 52 -287 l57 -283 31 -3 31 -3 -14 43 c-13
43 -116 443 -130 506 -6 30 -15 39 -27 27z"/>
<path d="M1651 1428 c-5 -18 -37 -141 -71 -273 -34 -132 -63 -248 -66 -257 -4
-14 1 -18 24 -18 l29 0 56 283 c31 156 57 286 57 290 0 20 -20 3 -29 -25z"/>
<path d="M200 1635 l0 -25 170 0 170 0 0 25 0 25 -170 0 -170 0 0 -25z"/>
<path d="M2460 1635 l0 -25 165 0 165 0 0 25 0 25 -165 0 -165 0 0 -25z"/>
<path d="M2329 1157 c-14 -25 -17 -22 148 -118 115 -66 126 -70 141 -55 10 10
13 19 7 25 -6 5 -72 45 -148 89 -132 78 -138 80 -148 59z"/>
<path d="M498 1088 c-126 -73 -136 -81 -125 -99 7 -11 17 -18 22 -17 6 2 72
38 147 82 123 70 137 80 127 97 -5 10 -15 19 -22 18 -7 0 -74 -37 -149 -81z"/>
<path d="M1250 481 c0 -154 1 -160 22 -175 19 -13 58 -16 226 -16 266 0 252
-11 252 200 l0 150 -250 0 -250 0 0 -159z m450 104 c13 -16 11 -228 -3 -242
-13 -13 -363 -16 -386 -3 -19 10 -21 20 -21 129 0 65 3 121 7 124 3 4 93 7
198 7 157 0 195 -3 205 -15z"/>
<path d="M1370 262 c0 -19 30 -48 67 -64 55 -24 110 -17 153 19 52 43 41 48
-95 48 -69 0 -125 -1 -125 -3z"/>
</g>
</svg>
